<?xml version="1.0" encoding="UTF-8"?>
<!DOCTYPE svg PUBLIC "-//W3C//DTD SVG 1.1//EN" "http://www.w3.org/Graphics/SVG/1.1/DTD/svg11.dtd">
<!-- Creator: CorelDRAW 2019 (64 Bit) -->
<svg xmlns="http://www.w3.org/2000/svg" xml:space="preserve" width="254mm" height="38.044mm" version="1.1" style="shape-rendering:geometricPrecision; text-rendering:geometricPrecision; image-rendering:optimizeQuality; fill-rule:evenodd; clip-rule:evenodd"
viewBox="0 0 25399.98 3804.4"
 xmlns:xlink="http://www.w3.org/1999/xlink"
 xmlns:xodm="http://www.corel.com/coreldraw/odm/2003">
 <defs>
  <style type="text/css">
   <![CDATA[
    .fil1 {fill:#2BDD66}
    .fil2 {fill:#FEFEFE;fill-rule:nonzero}
    .fil0 {fill:#2BDD66;fill-rule:nonzero}
   ]]>
  </style>
 </defs>
 <g id="Camada_x0020_1">
  <metadata id="CorelCorpID_0Corel-Layer"/>
  <g id="_2672780389104">
   <path class="fil0" d="M1012.62 3026.23l-475.4 -1674.71 -14.09 0c4.34,43.96 8.68,102.57 13.56,176.91 4.34,73.8 9.22,154.13 13.56,239.87 3.81,85.74 5.97,168.78 5.97,248.02l0 1009.91 -556.23 0 0 -2324.83 836.25 0 484.61 1650.84 13.03 0 475.4 -1650.84 837.87 0 0 2324.83 -577.41 0 0 -1019.15c0,-73.25 1.63,-151.95 4.34,-236.06 2.72,-84.65 5.44,-163.89 9.25,-238.78 3.78,-74.89 7.03,-134.04 10.31,-177.45l-14.12 0 -468.87 1671.44 -598.03 0zm2978.23 -1800.6c227.9,0 405.91,55.34 533.98,166.07 128.08,111.23 192.1,269.15 192.1,474.3l0 1160.23 -430.34 0 -119.39 -237.68 -13.03 0c-50.46,63.49 -103.11,115.04 -156.29,155.19 -53.71,39.62 -115.04,68.93 -183.97,87.37 -68.9,18.46 -153.01,27.68 -252.34,27.68 -104.2,0 -197.53,-20.62 -280.02,-62.4 -82.48,-41.8 -147.6,-104.73 -195.35,-189.41 -47.77,-84.64 -71.64,-191.56 -71.64,-320.7 0,-189.94 66.74,-330.51 200.25,-422.22 133.48,-91.7 327.23,-143.81 580.13,-155.19l300.64 -9.25 0 -23.87c0,-76.52 -20.09,-130.79 -59.7,-162.79 -39.62,-32.56 -92.8,-48.3 -159.54,-48.3 -71.09,0 -150.33,12.47 -237.69,36.9 -87.39,24.96 -175.28,56.99 -263.21,96.58l-179.62 -410.25c103.64,-53.18 221.4,-93.34 352.73,-121.02 131.34,-27.68 278.95,-41.24 442.3,-41.24zm107.98 1015.88l-143.26 5.97c-114.51,3.81 -194.84,22.8 -240.96,56.99 -46.12,33.65 -68.92,81.95 -68.92,144.35 0,58.61 16.28,102.02 49.39,129.7 32.56,27.68 75.96,41.24 130.23,41.24 75.43,0 139.48,-22.24 193.19,-67.83 53.74,-45.59 80.33,-104.74 80.33,-177.45l0 -132.97zm2128.39 -1015.88c34.19,0 69.46,2.16 106.9,7.06 36.9,4.88 64.58,8.68 82.48,11.94l-55.33 586.63c-20.63,-5.44 -46.15,-9.78 -78.15,-13.57 -32.02,-3.8 -76.52,-5.43 -133.51,-5.43 -39.08,0 -81.39,3.81 -125.89,10.84 -44.52,7.06 -86.29,22.28 -125.91,45.59 -40.15,23.34 -72.71,58.62 -98.23,105.29 -24.97,47.22 -37.97,110.17 -37.97,189.94l0 862.31 -621.37 0 0 -1768.04 462.36 0 97.14 287.08 29.84 0c33.09,-59.71 75.43,-113.42 126.45,-161.73 51.56,-47.74 109.61,-86.29 173.66,-115.04 64.03,-28.78 129.7,-42.87 197.53,-42.87zm1065.28 -674.02l0 986.06c0,73.81 -2.72,156.29 -8.69,247.47 -5.96,90.61 -14.65,173.1 -26.59,246.9l13.03 0c24.41,-36.34 54.81,-81.93 92.24,-137.29 36.9,-54.81 70.55,-100.93 99.86,-137.3l403.75 -499.26 693.55 0 -625.16 752.14 664.78 1015.9 -710.36 0 -394.54 -633.31 -201.87 150.88 0 482.43 -624.62 0 0 -2474.62 624.62 0zm2332.43 674.02c174.75,0 325.6,29.84 453.14,90.08 126.98,59.71 225.22,149.23 294.12,269.18 68.92,119.92 103.11,269.71 103.11,449.87l0 271.89 -1111.4 0c5.44,90.61 40.71,164.98 105.83,223.03 65.11,58.06 161.16,86.83 288.7,86.83 112.33,0 215.44,-10.84 309.33,-33.12 93.33,-22.24 190.47,-56.43 289.77,-103.1l0 446.64c-86.83,45.59 -181.78,78.68 -284.36,99.83 -103.11,21.19 -232.81,32.03 -389.63,32.03 -181.25,0 -343.51,-32.03 -486.24,-95.52 -143.26,-63.49 -256.15,-161.69 -338.1,-295.2 -81.93,-133.51 -123.17,-304.99 -123.17,-513.92 0,-212.72 36.9,-387.48 111.23,-524.77 74.36,-136.76 178.01,-238.24 311.52,-304.45 133.48,-66.21 289.23,-99.3 466.15,-99.3zm22.24 422.75c-73.24,0 -134.57,21.71 -183.97,64.58 -49.37,42.87 -78.14,110.7 -86.27,202.41l533.98 0c-1.06,-49.37 -11.37,-94.42 -32,-135.14 -20.08,-40.15 -49.39,-72.17 -87.92,-96.04 -38.52,-23.88 -86.83,-35.81 -143.82,-35.81zm2062.19 919.29c55.89,0 107.45,-5.96 154.1,-17.9 46.68,-11.4 94.98,-26.06 145.98,-44.52l0 453.15c-67.84,29.84 -139.45,54.27 -215.44,72.71 -75.43,18.46 -172.57,27.68 -289.77,27.68 -116.7,0 -219.81,-17.9 -308.8,-53.71 -88.98,-35.28 -157.91,-97.7 -207.31,-186.16 -49.37,-88.45 -73.8,-211.63 -73.8,-370.1l0 -725.02 -218.15 0 0 -252.33 276.77 -195.91 160.63 -378.79 407 0 0 361.42 441.75 0 0 465.61 -441.75 0 0 675.09c0,56.46 14.65,98.23 44.5,126.45 29.86,28.21 71.11,42.33 124.29,42.33zm1715.39 -1342.04c199.18,0 355.47,78.14 468.89,234.97 113.42,156.84 170.39,382.59 170.39,677.8 0,200.81 -28.75,370.13 -86.27,506.86 -56.99,137.32 -135.14,240.43 -234.44,309.89 -98.76,68.92 -211.65,103.64 -337.54,103.64 -85.2,0 -156.85,-10.84 -215.46,-32.03 -59.15,-21.15 -107.99,-47.21 -146.51,-79.21 -38.53,-32.02 -71.09,-64.05 -97.68,-97.14l-18.99 0c5.4,41.25 9.75,85.74 13.56,132.95 3.78,47.21 5.43,103.11 5.43,166.07l0 655 -621.37 0 0 -2546.24 505.23 0 87.37 227.93 28.77 0c29.84,-46.15 65.65,-89.55 107.99,-129.17 42.33,-40.15 94.42,-71.64 155.19,-95.51 60.78,-23.87 132.95,-35.81 215.44,-35.81zm-233.87 487.86c-60.24,0 -108.01,14.12 -142.73,41.78 -35.28,27.15 -60.24,68.93 -75.99,124.82 -15.18,55.37 -23.87,124.83 -26.03,207.31l0 47.75c0,91.71 7.6,169.32 22.25,232.27 14.65,62.4 40.15,110.17 76.52,142.17 35.81,32.03 85.74,48.31 149.23,48.31 52.09,0 95.51,-14.1 130.23,-42.87 35.28,-28.75 61.87,-73.8 79.77,-136.2 17.93,-62.43 27.15,-144.91 27.15,-246.93 0,-151.95 -20.62,-259.93 -61.33,-323.45 -40.69,-62.93 -100.4,-94.96 -179.07,-94.96zm1848.9 1312.74l-621.37 0 0 -2474.62 621.37 0 0 2474.62zm1310.02 -1800.6c227.91,0 405.91,55.34 533.98,166.07 128.08,111.23 192.1,269.15 192.1,474.3l0 1160.23 -430.34 0 -119.39 -237.68 -13.03 0c-50.46,63.49 -103.1,115.04 -156.28,155.19 -53.72,39.62 -115.05,68.93 -183.98,87.37 -68.9,18.46 -153.01,27.68 -252.33,27.68 -104.2,0 -197.54,-20.62 -280.02,-62.4 -82.49,-41.8 -147.61,-104.73 -195.35,-189.41 -47.77,-84.64 -71.65,-191.56 -71.65,-320.7 0,-189.94 66.75,-330.51 200.25,-422.22 133.49,-91.7 327.24,-143.81 580.13,-155.19l300.65 -9.25 0 -23.87c0,-76.52 -20.09,-130.79 -59.71,-162.79 -39.62,-32.56 -92.8,-48.3 -159.54,-48.3 -71.09,0 -150.32,12.47 -237.69,36.9 -87.38,24.96 -175.28,56.99 -263.2,96.58l-179.63 -410.25c103.64,-53.18 221.4,-93.34 352.73,-121.02 131.35,-27.68 278.95,-41.24 442.3,-41.24zm107.99 1015.88l-143.26 5.97c-114.52,3.81 -194.85,22.8 -240.97,56.99 -46.12,33.65 -68.92,81.95 -68.92,144.35 0,58.61 16.28,102.02 49.39,129.7 32.56,27.68 75.97,41.24 130.24,41.24 75.42,0 139.47,-22.24 193.19,-67.83 53.74,-45.59 80.33,-104.74 80.33,-177.45l0 -132.97zm1861.37 817.28c-182.32,0 -340.79,-32.03 -475.37,-96.05 -134.6,-64.05 -238.77,-163.35 -312.04,-296.86 -73.81,-134.04 -110.71,-305.52 -110.71,-514.99 0,-214.9 41.25,-390.18 123.18,-526.94 81.95,-136.21 194.84,-236.6 338.1,-301.18 142.73,-64.58 304.98,-97.14 486.24,-97.14 110.17,0 214.9,11.94 314.2,36.37 98.77,24.4 191.03,58.05 275.68,100.39l-182.88 459.65c-74.34,-33.12 -143.26,-59.15 -207.31,-78.71 -64.03,-20.06 -130.77,-29.84 -199.69,-29.84 -62.4,0 -117.77,16.28 -165.51,47.75 -47.77,31.49 -84.67,79.24 -111.26,143.28 -26.59,64.03 -39.62,144.89 -39.62,243.12 0,99.84 13.56,180.7 40.71,242.03 27.12,61.33 64.58,105.83 112.86,133.51 48.3,27.12 103.67,41.24 166.07,41.24 90.08,0 179.63,-14.12 269.71,-42.33 89.54,-28.22 174.19,-66.74 255.05,-116.67l0 494.36c-74.33,48.84 -157.91,87.37 -251.24,116.14 -93.36,28.77 -201.88,42.87 -326.17,42.87zm1745.8 -1833.16c174.75,0 325.6,29.84 453.14,90.08 126.98,59.71 225.22,149.23 294.12,269.18 68.92,119.92 103.11,269.71 103.11,449.87l0 271.89 -1111.4 0c5.44,90.61 40.71,164.98 105.83,223.03 65.11,58.06 161.16,86.83 288.7,86.83 112.33,0 215.44,-10.84 309.33,-33.12 93.33,-22.24 190.47,-56.43 289.77,-103.1l0 446.64c-86.83,45.59 -181.78,78.68 -284.36,99.83 -103.11,21.19 -232.81,32.03 -389.63,32.03 -181.25,0 -343.51,-32.03 -486.24,-95.52 -143.26,-63.49 -256.15,-161.69 -338.1,-295.2 -81.93,-133.51 -123.17,-304.99 -123.17,-513.92 0,-212.72 36.9,-387.48 111.23,-524.77 74.36,-136.76 178.01,-238.24 311.52,-304.45 133.48,-66.21 289.23,-99.3 466.15,-99.3zm22.24 422.75c-73.24,0 -134.57,21.71 -183.97,64.58 -49.37,42.87 -78.14,110.7 -86.27,202.41l533.98 0c-1.06,-49.37 -11.37,-94.42 -32,-135.14 -20.08,-40.15 -49.39,-72.17 -87.92,-96.04 -38.52,-23.88 -86.83,-35.81 -143.82,-35.81z"/>
   <g>
    <rect class="fil1" x="21672.3" y="-0.04" width="3727.7" height="3727.7" rx="430.04" ry="430.04"/>
    <g>
     <path class="fil2" d="M23497.07 701.4c294.67,0 515.54,64.05 662.61,192.1 146.54,128.63 219.78,310.97 219.78,547.03 0,105.83 -15.18,207.85 -45.02,305.52 -30.4,97.14 -79.77,183.97 -148.17,260.49 -68.36,76.52 -159,136.76 -271.86,181.26 -112.89,44.49 -251.81,66.74 -417.34,66.74l-176.35 0 0 771.69 -627.88 0 0 -2324.83 804.23 0zm-14.1 507.39l-162.25 0 0 534.01 124.26 0c53.74,0 104.2,-9.22 150.85,-28.21 46.68,-18.47 84.14,-48.31 112.36,-90.64 27.65,-41.78 41.78,-97.68 41.78,-167.7 0,-72.71 -21.72,-132.39 -65.12,-178.53 -43.43,-46.12 -110.7,-68.93 -201.88,-68.93z"/>
     <polygon class="fil2" points="23748.34,3026.23 23748.34,2395.23 24379.46,2395.23 24379.46,3026.23 "/>
    </g>
   </g>
  </g>
 </g>
</svg>
